USFL
nRows=122
nColumns=2
inDegrees=yes
endheader
time	soleus_r	
2.79133	 51.335652	
2.8629	 51.280724	
2.93448	 51.381506	
3.00605	 51.441444	
3.07762	 51.469668	
3.14919	 51.173072	
3.22077	 51.249814	
3.29234	 51.133059	
3.36391	 50.911316	
3.43548	 51.143652	
3.50706	 51.033790	
3.57863	 50.700180	
3.6502	 50.724088	
3.72177	 50.649220	
3.79335	 50.727024	
3.86492	 50.561669	
3.93649	 50.684620	
4.00806	 50.965395	
4.07964	 51.073086	
4.15121	 51.008996	
4.22278	 51.047178	
4.29435	 50.999958	
4.36593	 51.490450	
4.4375	 51.155175	
4.50907	 51.276667	
4.58065	 51.070514	
4.65222	 50.267313	
4.72379	 50.462134	
4.79536	 50.530727	
4.86694	 50.927018	
4.93851	 47.465147	
5.01008	 48.028710	
5.08165	 48.427328	
5.15323	 46.479011	
5.2248	 45.114636	
5.29637	 44.702703	
5.36794	 44.556332	
5.43952	 43.919118	
5.51109	 44.275886	
5.58266	 40.032486	
5.65423	 40.144292	
5.72581	 39.937583	
5.79738	 39.584602	
5.86895	 39.325696	
5.94052	 38.284392	
6.0121	 38.559504	
6.08367	 38.430710	
6.15524	 37.107619	
6.22681	 36.599818	
6.29839	 36.529590	
6.36996	 37.087636	
6.44153	 37.484260	
6.5131	 37.902787	
6.58468	 36.960663	
6.65625	 36.307722	
6.72782	 35.036993	
6.7994	 35.473213	
6.87097	 35.407287	
6.94254	 37.175686	
7.01411	 35.361486	
7.08569	 35.268795	
7.15726	 36.090634	
7.22883	 34.595049	
7.3004	 35.591042	
7.37198	 35.752169	
7.44355	 35.102651	
7.51512	 36.849502	
7.58669	 36.427410	
7.65827	 36.341628	
7.72984	 36.703264	
7.80141	 35.060903	
7.87298	 36.257823	
7.94456	 36.211904	
8.01613	 39.247234	
8.0877	 39.214763	
8.15927	 39.291702	
8.23085	 39.223490	
8.30242	 38.583008	
8.37399	 38.543239	
8.44556	 38.632767	
8.51714	 37.968651	
8.58871	 37.225535	
8.66028	 37.405603	
8.73185	 37.789706	
8.80343	 37.708144	
8.875	 37.533752	
8.94657	 38.476155	
9.01815	 38.582853	
9.08972	 36.605674	
9.16129	 36.465560	
9.23286	 36.202875	
9.30444	 35.133802	
9.37601	 33.577003	
9.44758	 33.577357	
9.51915	 34.346764	
9.59073	 37.109441	
9.6623	 37.225885	
9.73387	 38.173565	
9.80544	 37.478343	
9.87702	 33.039799	
9.94859	 34.580946	
10.0202	 36.466450	
10.0917	 36.428637	
10.1633	 32.546645	
10.2349	 30.857024	
10.3065	 29.025779	
10.378	 34.646629	
10.4496	 37.868806	
10.5212	 38.553065	
10.5927	 37.983095	
10.6643	 35.720319	
10.7359	 33.944466	
10.8075	 33.519585	
10.879	 33.539400	
10.9506	 33.897456	
11.0222	 34.163373	
11.0937	 33.914486	
11.1653	 34.399112	
11.2369	 34.585459	
11.3085	 34.972182	
11.38	 35.158810	
11.4516	 35.032383	
